<?xml version="1.0" ?><svg id="Layer_1" style="enable-background:new 0 0 64 64;" version="1.1" viewBox="0 0 64 64" xml:space="preserve" xmlns="http://www.w3.org/2000/svg" xmlns:xlink="http://www.w3.org/1999/xlink"><style type="text/css">
	.st0{fill:#62BEE7;}
	.st1{fill:#474E5E;}
	.st2{fill:#F3EEE4;}
	.st3{fill:#FFFFFF;}
	.st4{fill:#E8DCCA;}
	.st5{opacity:0.1;fill:#231F20;}
	.st6{fill:#506268;}
	.st7{fill:#EB5151;}
	.st8{fill:#C64444;}
	.st9{fill:#9CCB5B;}
	.st10{fill:#404A4C;}
	.st11{fill:#676767;}
	.st12{fill:#E0E1E5;}
	.st13{fill:#9D9EA0;}
	.st14{fill:#B3B4B7;}
	.st15{opacity:0.1;}
	.st16{fill:#231F20;}
	.st17{fill:#FACC20;}
	.st18{fill:#FDEF34;}
	.st19{fill:#F7A90B;}
	.st20{fill:#20B8EA;}
	.st21{fill:#00A8EA;}
	.st22{fill:#33D3F4;}
	.st23{opacity:0.25;fill:#FFFFFF;}
	.st24{fill:#CACBCE;}
	.st25{fill:#2E3545;}
	.st26{fill:#8DAF4A;}
	.st27{fill:#F9C2AF;}
	.st28{fill:#AFDDF4;}
	.st29{fill:#677177;}
	.st30{fill:#FFEDB3;}
	.st31{fill:#695652;}
	.st32{fill:#30A7BF;}
	.st33{fill:#4D5556;}
	.st34{opacity:0.35;}
	.st35{fill:#FFCB04;}
	.st36{fill:#99E9FA;}
	.st37{opacity:0.2;}
	.st38{opacity:3.000000e-02;}
	.st39{fill:#9ECA5B;}
	.st40{fill:#98BA56;}
	.st41{fill:#40EEFF;}
	.st42{fill:#FF6A52;}
	.st43{opacity:0.1;fill:#FFFFFF;}
	.st44{opacity:0.4;}
	.st45{fill:#57606D;}
	.st46{fill:#BACA5B;}
	.st47{opacity:0.25;}
	.st48{opacity:5.000000e-02;fill:#231F20;}
	.st49{opacity:0.2;fill:#FFFFFF;}
	.st50{opacity:0.3;}
	.st51{fill:#FFD82F;}
	.st52{fill:#F4C121;}
	.st53{fill:#EF9D0A;}
	.st54{fill:#F9E532;}
	.st55{fill:#F4C01E;}
	.st56{fill:#FFE14D;}
	.st57{fill:#B7C156;}
	.st58{fill:#DBA92C;}
	.st59{fill:#363D4D;}
	.st60{fill:#3F4656;}
	.st61{fill:#463E33;}
	.st62{fill:none;}
	.st63{opacity:4.000000e-02;}
	.st64{fill:#4DB6AC;}
	.st65{fill:#CADE49;}
	.st66{fill:#9FD343;}
	.st67{fill:#AAD643;}
	.st68{fill:#82C736;}
	.st69{opacity:0.3;fill:#FFFFFF;}
	.st70{fill:#FFD640;}
	.st71{opacity:0.5;}
	.st72{opacity:0.6;}
</style><g><circle class="st9" cx="32" cy="32" r="32"/><g><path class="st10" d="M55.1,16.1v28.8c0,1.1-0.9,2-2,2H10.9c-1.1,0-2-0.9-2-2V16.1c0-1.1,0.9-2,2-2h42.2    C54.2,14.1,55.1,15,55.1,16.1z"/><rect class="st21" height="27.6" width="41" x="11.5" y="16.7"/><rect class="st11" height="4.5" width="13.1" x="25.5" y="46.9"/><path class="st10" d="M40.2,51.4H23.8c-2.3,0-4.6,1.1-6,3h28.3C44.7,52.5,42.5,51.4,40.2,51.4z"/><g><g><g><rect class="st3" height="1.7" width="13.9" x="36.8" y="26.2"/><rect class="st3" height="1.7" width="13.9" x="36.8" y="29.7"/></g><g><rect class="st3" height="1.7" width="13.9" x="36.8" y="33.2"/></g><g><rect class="st3" height="1.7" width="1.7" x="34" y="26.2"/><rect class="st3" height="1.7" width="1.7" x="34" y="29.7"/></g><g><rect class="st3" height="1.7" width="1.7" x="34" y="33.2"/></g></g><g><rect class="st18" height="3.6" transform="matrix(6.123234e-17 -1 1 6.123234e-17 -20.5584 50.8186)" width="6.9" x="11.7" y="33.9"/><polygon class="st5" points="16.9,32.3 16.9,39.1 15.1,39.1     "/><rect class="st19" height="3.6" transform="matrix(6.123234e-17 -1 1 6.123234e-17 -14.203 53.7325)" width="10.3" x="14.6" y="32.2"/><rect class="st4" height="3.6" transform="matrix(6.123234e-17 -1 1 6.123234e-17 -7.8477 56.6464)" width="13.8" x="17.5" y="30.4"/><rect class="st3" height="3.6" transform="matrix(6.123234e-17 -1 1 6.123234e-17 -1.4923 59.5603)" width="17.2" x="20.4" y="28.7"/><polygon class="st5" points="21.6,28.8 21.6,39.1 19.8,39.1     "/><polygon class="st5" points="26.2,25.4 26.2,39.1 24.4,39.1     "/><polygon class="st5" points="30.8,21.9 30.8,39.1 29,39.1     "/></g></g></g></g></svg>